<svg width="141" height="141" viewBox="0 0 141 141" fill="none" xmlns="http://www.w3.org/2000/svg">
<rect x="0.125" y="0.150833" width="140" height="140" rx="70" fill="#FFF5EE"/>
<path d="M64.6563 93.1196H63.6085V85.1801C63.6126 81.9744 62.3458 78.8979 60.0855 76.6247L51.4766 68.0169C50.9273 67.4541 50.233 67.054 49.4706 66.861C48.7082 66.668 47.9072 66.6895 47.1563 66.9232V60.0326C47.1563 58.8722 46.6953 57.7594 45.8749 56.939C45.0544 56.1185 43.9416 55.6576 42.7813 55.6576C41.6209 55.6576 40.5081 56.1185 39.6877 56.939C38.8672 57.7594 38.4063 58.8722 38.4063 60.0326V75.0848C38.4048 75.6602 38.5175 76.2303 38.7377 76.7619C38.9579 77.2936 39.2813 77.7763 39.6892 78.1822L48.7017 87.1947C48.9061 87.3977 49.0681 87.6392 49.1783 87.9052C49.2885 88.1713 49.3448 88.4566 49.3438 88.7446V93.1196H48.25C47.9599 93.1196 47.6817 93.2348 47.4766 93.4399C47.2715 93.6451 47.1563 93.9233 47.1563 94.2133V100.776C47.1563 101.066 47.2715 101.344 47.4766 101.549C47.6817 101.754 47.9599 101.87 48.25 101.87H64.6563C64.9463 101.87 65.2245 101.754 65.4297 101.549C65.6348 101.344 65.75 101.066 65.75 100.776V94.2133C65.75 93.9233 65.6348 93.6451 65.4297 93.4399C65.2245 93.2348 64.9463 93.1196 64.6563 93.1196ZM50.2483 85.6471L41.2358 76.6357C41.0315 76.4325 40.8695 76.1908 40.7593 75.9246C40.6491 75.6583 40.5929 75.3729 40.5938 75.0848V60.0402C40.5938 59.4601 40.8242 58.9037 41.2345 58.4934C41.6447 58.0832 42.2011 57.8527 42.7813 57.8527C43.3614 57.8527 43.9178 58.0832 44.3281 58.4934C44.7383 58.9037 44.9688 59.4601 44.9688 60.0402V68.4008C44.3042 69.2729 43.9831 70.3587 44.0664 71.4519C44.1497 72.5452 44.6315 73.5698 45.4205 74.3312L51.4766 80.3872C51.6829 80.5865 51.9591 80.6967 52.2459 80.6942C52.5327 80.6917 52.807 80.5767 53.0098 80.3739C53.2126 80.1711 53.3276 79.8968 53.3301 79.61C53.3326 79.3232 53.2224 79.047 53.0231 78.8407L46.967 72.7846C46.5426 72.3849 46.2844 71.84 46.2438 71.2584C46.2033 70.6768 46.3834 70.1013 46.7483 69.6466C46.9467 69.4258 47.188 69.2478 47.4575 69.1232C47.7269 68.9987 48.0189 68.9303 48.3157 68.9222C48.6124 68.9141 48.9077 68.9665 49.1835 69.0762C49.4594 69.1859 49.71 69.3506 49.9202 69.5602L58.5291 78.168C60.3778 80.0284 61.4141 82.5454 61.4111 85.168V93.1196H51.5313V88.7446C51.5327 88.1691 51.4201 87.5991 51.1999 87.0674C50.9796 86.5357 50.6562 86.053 50.2483 85.6471ZM63.5625 99.6821H49.3438V95.3071H63.5625V99.6821ZM97.4688 55.6652C96.3084 55.6652 95.1956 56.1262 94.3752 56.9466C93.5547 57.7671 93.0938 58.8799 93.0938 60.0402V66.9308C92.7331 66.8199 92.3596 66.7559 91.9825 66.7405C91.3882 66.7215 90.7964 66.8254 90.2442 67.0458C89.692 67.2662 89.1913 67.5983 88.7734 68.0213L80.1645 76.6291C77.9051 78.9011 76.6383 81.9759 76.6416 85.1801V93.1196H75.5938C75.3037 93.1196 75.0255 93.2348 74.8204 93.4399C74.6152 93.6451 74.5 93.9233 74.5 94.2133V100.776C74.5 101.066 74.6152 101.344 74.8204 101.549C75.0255 101.754 75.3037 101.87 75.5938 101.87H92C92.2901 101.87 92.5683 101.754 92.7734 101.549C92.9785 101.344 93.0938 101.066 93.0938 100.776V94.2133C93.0938 93.9233 92.9785 93.6451 92.7734 93.4399C92.5683 93.2348 92.2901 93.1196 92 93.1196H90.9063V88.7446C90.9053 88.4566 90.9615 88.1713 91.0717 87.9052C91.1819 87.6392 91.3439 87.3977 91.5483 87.1947L100.561 78.1822C100.969 77.7763 101.292 77.2936 101.512 76.7619C101.733 76.2303 101.845 75.6602 101.844 75.0848V60.0402C101.844 58.8799 101.383 57.7671 100.562 56.9466C99.7419 56.1262 98.6291 55.6652 97.4688 55.6652ZM90.9063 99.6821H76.6875V95.3071H90.9063V99.6821ZM99.6563 75.0848C99.6572 75.3729 99.6009 75.6583 99.4907 75.9246C99.3805 76.1908 99.2185 76.4325 99.0142 76.6357L90.0017 85.6471C89.5938 86.053 89.2704 86.5357 89.0502 87.0674C88.83 87.5991 88.7173 88.1691 88.7188 88.7446V93.1196H78.8291V85.1702C78.8258 82.5475 79.8621 80.0303 81.7111 78.1702L90.32 69.5624C90.5302 69.3528 90.7808 69.1881 91.0566 69.0784C91.3325 68.9687 91.6278 68.9163 91.9245 68.9244C92.2212 68.9325 92.5132 69.0009 92.7827 69.1254C93.0522 69.2499 93.2935 69.428 93.4919 69.6488C93.8568 70.1035 94.0369 70.679 93.9964 71.2606C93.9558 71.8422 93.6976 72.3871 93.2731 72.7868L87.217 78.8429C87.0178 79.0492 86.9076 79.3254 86.9101 79.6122C86.9125 79.899 87.0276 80.1733 87.2304 80.3761C87.4332 80.5789 87.7075 80.6939 87.9943 80.6964C88.281 80.6989 88.5573 80.5887 88.7636 80.3894L94.8197 74.3333C95.6107 73.5731 96.0948 72.5487 96.1799 71.455C96.265 70.3612 95.9452 69.2742 95.2813 68.4008V60.0402C95.2813 59.4601 95.5117 58.9037 95.922 58.4934C96.3322 58.0832 96.8886 57.8527 97.4688 57.8527C98.0489 57.8527 98.6053 58.0832 99.0156 58.4934C99.4258 58.9037 99.6563 59.4601 99.6563 60.0402V75.0848ZM86.5313 54.8383C86.5313 51.5935 85.5691 48.4215 83.7663 45.7235C81.9636 43.0255 79.4013 40.9227 76.4034 39.6809C73.4056 38.4392 70.1068 38.1143 66.9243 38.7473C63.7418 39.3804 60.8185 40.9429 58.524 43.2374C56.2296 45.5318 54.667 48.4551 54.034 51.6376C53.401 54.8201 53.7259 58.1189 54.9676 61.1167C56.2094 64.1146 58.3122 66.6769 61.0102 68.4796C63.7082 70.2824 66.8802 71.2446 70.125 71.2446C74.4747 71.2397 78.6448 69.5096 81.7205 66.4339C84.7962 63.3582 86.5263 59.188 86.5313 54.8383ZM70.125 69.0571C67.3128 69.0571 64.5638 68.2232 62.2255 66.6608C59.8872 65.0984 58.0648 62.8778 56.9886 60.2796C55.9124 57.6815 55.6308 54.8226 56.1795 52.0644C56.7281 49.3062 58.0823 46.7727 60.0708 44.7842C62.0594 42.7956 64.5929 41.4414 67.3511 40.8928C70.1092 40.3442 72.9682 40.6257 75.5663 41.7019C78.1644 42.7781 80.3851 44.6006 81.9475 46.9388C83.5098 49.2771 84.3438 52.0261 84.3438 54.8383C84.3394 58.6081 82.84 62.2221 80.1744 64.8877C77.5088 67.5533 73.8947 69.0527 70.125 69.0571Z" fill="#F97E27"/>
<path d="M73.9531 46.3617C72.5738 46.3508 71.229 46.7927 70.125 47.6195C69.0205 46.7939 67.6758 46.3532 66.2969 46.365C63.5373 46.365 61.375 48.9276 61.375 52.198C61.375 55.4201 65.1637 59.1608 69.3856 63.0261C69.5874 63.2112 69.8512 63.3138 70.125 63.3138C70.3988 63.3138 70.6626 63.2112 70.8644 63.0261C75.0862 59.1564 78.875 55.4158 78.875 52.198C78.875 48.9244 76.7127 46.3617 73.9531 46.3617ZM70.125 60.7358C67.383 58.2048 63.5625 54.5014 63.5625 52.1947C63.5625 50.4031 64.5852 48.5492 66.2969 48.5492C66.8512 48.5331 67.4027 48.6344 67.9152 48.8462C68.4276 49.0581 68.8896 49.3758 69.2708 49.7786C69.3775 49.9016 69.5095 50.0001 69.6578 50.0673C69.8061 50.1346 69.9672 50.169 70.13 50.1683C70.2929 50.1676 70.4536 50.1317 70.6013 50.0631C70.749 49.9945 70.8802 49.8949 70.9858 49.7709C71.3678 49.3715 71.8291 49.0565 72.3402 48.8461C72.8512 48.6356 73.4007 48.5345 73.9531 48.5492C75.6648 48.5492 76.6875 50.4086 76.6875 52.1947C76.6875 54.5101 72.867 58.2048 70.125 60.7358Z" fill="#F97E27"/>
</svg>
