<svg width="141" height="141" viewBox="0 0 141 141" fill="none" xmlns="http://www.w3.org/2000/svg">
<rect x="0.875" y="0.150833" width="140" height="140" rx="70" fill="#FFF5EE"/>
<g clip-path="url(#clip0_161_9289)">
<mask id="mask0_161_9289" style="mask-type:luminance" maskUnits="userSpaceOnUse" x="35" y="35" width="71" height="71">
<path d="M35.875 35.1513H105.875V105.151H35.875V35.1513Z" fill="white"/>
</mask>
<g mask="url(#mask0_161_9289)">
<path d="M70.875 103.784C89.3993 103.784 104.508 88.6754 104.508 70.1511C104.508 51.6267 89.3993 36.5182 70.875 36.5182C52.3507 36.5182 37.2422 51.6267 37.2422 70.1511C37.2422 88.6754 52.3507 103.784 70.875 103.784Z" stroke="#F97E27" stroke-width="2" stroke-miterlimit="2.613" stroke-linecap="round" stroke-linejoin="round"/>
<path d="M55.7576 46.3849C60.1253 43.6008 65.3116 41.9871 70.8751 41.9871C86.4296 41.9871 99.0392 54.5965 99.0392 70.151C99.0392 85.7056 86.4296 98.3152 70.8751 98.3152C55.3205 98.3152 42.7109 85.7056 42.7109 70.151C42.7109 64.588 44.3245 59.4017 47.1083 55.0344" stroke="#F97E27" stroke-width="2" stroke-miterlimit="2.613" stroke-linecap="round" stroke-linejoin="round"/>
<path d="M70.8751 70.151V59.9368C70.4359 60.0919 69.9736 60.171 69.5079 60.1706C67.2426 60.1706 65.4063 58.3342 65.4063 56.0691C65.4063 53.8038 67.2426 51.9675 69.5079 51.9675C69.9872 51.9675 70.4474 52.0501 70.8751 52.2012V42.6023M70.8751 70.151H60.6608C60.816 70.5902 60.895 71.0525 60.8946 71.5182C60.8946 73.7835 59.0582 75.6198 56.7931 75.6198C54.5278 75.6198 52.6915 73.7835 52.6915 71.5182C52.6915 71.0389 52.7741 70.5787 52.9252 70.151H43.3262M70.8751 70.151V80.3653C71.3142 80.2101 71.7765 80.1311 72.2422 80.1315C74.5075 80.1315 76.3438 81.9679 76.3438 84.233C76.3438 86.4983 74.5075 88.3346 72.2422 88.3346C71.7629 88.3346 71.3027 88.252 70.8751 88.1009V97.6999M70.8751 70.151H81.0893C80.9342 69.7119 80.8551 69.2496 80.8555 68.7839C80.8555 66.5186 82.6919 64.6823 84.957 64.6823C87.2223 64.6823 89.0586 66.5186 89.0586 68.7839C89.0586 69.2632 88.976 69.7234 88.8249 70.151H98.4239" stroke="#F97E27" stroke-width="2" stroke-miterlimit="2.613" stroke-linecap="round" stroke-linejoin="round"/>
<path d="M50.9595 50.2369L50.9602 50.2362" stroke="#F97E27" stroke-width="2" stroke-miterlimit="2.613" stroke-linecap="round" stroke-linejoin="round"/>
</g>
</g>
<defs>
<clipPath id="clip0_161_9289">
<rect width="70" height="70" fill="white" transform="translate(35.875 35.1508)"/>
</clipPath>
</defs>
</svg>
