<svg width="141" height="141" viewBox="0 0 141 141" fill="none" xmlns="http://www.w3.org/2000/svg">
<rect x="0.375" y="0.150833" width="140" height="140" rx="70" fill="#FFF5EE"/>
<path d="M82.7727 53.0118C80.8212 51.2523 78.5164 49.93 76.0126 49.1334C73.5087 48.3368 70.8636 48.0843 68.2542 48.3929C64.3157 48.8426 60.6241 50.5401 57.719 53.2373C54.8139 55.9345 52.8474 59.49 52.1069 63.3844C51.3664 67.2788 51.8906 71.3079 53.6031 74.8831C55.3155 78.4583 58.1264 81.3922 61.625 83.2561V94.2133C61.6256 94.7933 61.8562 95.3494 62.2663 95.7595C62.6765 96.1696 63.2325 96.4003 63.8125 96.4008H66V98.5883C66.0006 99.1683 66.2312 99.7244 66.6413 100.134C67.0515 100.545 67.6075 100.775 68.1875 100.776H72.5625C73.1425 100.775 73.6985 100.545 74.1087 100.134C74.5188 99.7244 74.7494 99.1683 74.75 98.5883V96.4008H76.9375C77.5175 96.4003 78.0735 96.1696 78.4837 95.7595C78.8938 95.3494 79.1244 94.7933 79.125 94.2133V83.2572C81.7649 81.8513 84.0262 79.8287 85.7168 77.3614C87.4073 74.8941 88.4771 72.055 88.8353 69.0856C89.1934 66.1162 88.8292 63.1042 87.7737 60.3058C86.7182 57.5073 85.0026 55.005 82.7727 53.0118ZM76.9375 87.6508V89.8383H63.8125V87.6508H76.9375ZM72.5647 98.5883H68.1875V96.4008H72.5625L72.5647 98.5883ZM73.6562 94.2133H63.8125V92.0258H76.9375V94.2133H73.6562ZM77.5522 81.6046C77.3678 81.6943 77.2123 81.8341 77.1036 82.008C76.9949 82.1818 76.9374 82.3828 76.9375 82.5879V85.4633H71.4688V80.4474L74.4295 77.4866C74.6288 77.2803 74.739 77.004 74.7365 76.7173C74.734 76.4305 74.619 76.1562 74.4162 75.9534C74.2134 75.7506 73.9391 75.6356 73.6523 75.6331C73.3655 75.6306 73.0893 75.7408 72.883 75.9401L70.375 78.448L67.867 75.9401C67.6607 75.7408 67.3845 75.6306 67.0977 75.6331C66.8109 75.6356 66.5366 75.7506 66.3338 75.9534C66.131 76.1562 66.016 76.4305 66.0135 76.7173C66.011 77.004 66.1212 77.2803 66.3205 77.4866L69.2812 80.4474V85.4633H63.8125V82.5868C63.8125 82.382 63.755 82.1814 63.6465 82.0077C63.538 81.834 63.3829 81.6944 63.1989 81.6046C60.0063 80.0539 57.4032 77.509 55.7806 74.3524C54.158 71.1958 53.6035 67.5978 54.2005 64.0992C54.7976 60.6005 56.5138 57.39 59.0914 54.9501C61.6689 52.5102 64.9687 50.9726 68.4948 50.5683C69.1268 50.4978 69.7621 50.4624 70.398 50.4622C74.4291 50.4505 78.3201 51.9403 81.3125 54.6415C83.3186 56.4345 84.8524 58.6939 85.7784 61.2201C86.7045 63.7464 86.9944 66.4617 86.6226 69.1265C86.2507 71.7913 85.2286 74.3236 83.6463 76.4998C82.064 78.676 79.9703 80.4292 77.55 81.6046H77.5522ZM70.375 46.0883C70.6651 46.0883 70.9433 45.9731 71.1484 45.768C71.3535 45.5629 71.4688 45.2847 71.4688 44.9946V40.6196C71.4688 40.3295 71.3535 40.0513 71.1484 39.8462C70.9433 39.6411 70.6651 39.5258 70.375 39.5258C70.0849 39.5258 69.8067 39.6411 69.6016 39.8462C69.3965 40.0513 69.2812 40.3295 69.2812 40.6196V44.9946C69.2812 45.2847 69.3965 45.5629 69.6016 45.768C69.8067 45.9731 70.0849 46.0883 70.375 46.0883ZM54.1328 52.1751C54.2344 52.2767 54.3549 52.3573 54.4876 52.4123C54.6203 52.4673 54.7626 52.4957 54.9063 52.4957C55.0499 52.4958 55.1922 52.4675 55.3249 52.4126C55.4577 52.3577 55.5783 52.2771 55.6799 52.1756C55.7815 52.074 55.8622 51.9535 55.9172 51.8208C55.9722 51.6881 56.0006 51.5458 56.0006 51.4022C56.0007 51.2585 55.9724 51.1162 55.9175 50.9835C55.8626 50.8507 55.782 50.7301 55.6805 50.6285L52.5863 47.5343C52.4854 47.4298 52.3647 47.3465 52.2312 47.2892C52.0978 47.2318 51.9543 47.2017 51.809 47.2004C51.6638 47.1991 51.5198 47.2268 51.3854 47.2818C51.2509 47.3368 51.1288 47.418 51.0261 47.5207C50.9234 47.6234 50.8422 47.7455 50.7872 47.8799C50.7322 48.0144 50.7046 48.1584 50.7058 48.3036C50.7071 48.4488 50.7373 48.5924 50.7946 48.7258C50.8519 48.8592 50.9352 48.9799 51.0397 49.0808L54.1328 52.1751ZM48.5 65.7758H44.125C43.8349 65.7758 43.5567 65.8911 43.3516 66.0962C43.1465 66.3013 43.0312 66.5795 43.0312 66.8696C43.0312 67.1597 43.1465 67.4379 43.3516 67.643C43.5567 67.8481 43.8349 67.9633 44.125 67.9633H48.5C48.7901 67.9633 49.0683 67.8481 49.2734 67.643C49.4785 67.4379 49.5938 67.1597 49.5938 66.8696C49.5938 66.5795 49.4785 66.3013 49.2734 66.0962C49.0683 65.8911 48.7901 65.7758 48.5 65.7758Z" fill="#F97E27"/>
<path d="M54.1327 81.564L51.0396 84.6582C50.9351 84.7591 50.8518 84.8798 50.7945 85.0132C50.7371 85.1467 50.707 85.2902 50.7057 85.4354C50.7044 85.5807 50.7321 85.7247 50.7871 85.8591C50.8421 85.9935 50.9233 86.1156 51.026 86.2183C51.1287 86.321 51.2508 86.4022 51.3852 86.4572C51.5197 86.5122 51.6637 86.5399 51.8089 86.5386C51.9541 86.5374 52.0977 86.5072 52.2311 86.4499C52.3645 86.3926 52.4852 86.3092 52.5861 86.2048L55.6803 83.1106C55.8796 82.9043 55.9898 82.628 55.9873 82.3412C55.9848 82.0544 55.8698 81.7801 55.667 81.5773C55.4642 81.3745 55.1899 81.2595 54.9031 81.257C54.6164 81.2545 54.339 81.3648 54.1327 81.564ZM88.1636 47.5341L85.0694 50.6284C84.9649 50.7293 84.8816 50.85 84.8243 50.9834C84.767 51.1168 84.7368 51.2604 84.7355 51.4056C84.7343 51.5508 84.762 51.6948 84.8169 51.8293C84.8719 51.9637 84.9532 52.0858 85.0559 52.1885C85.1585 52.2912 85.2807 52.3724 85.4151 52.4274C85.5495 52.4824 85.6935 52.5101 85.8388 52.5088C85.984 52.5075 86.1275 52.4774 86.2609 52.42C86.3944 52.3627 86.5151 52.2794 86.616 52.1749L89.7102 49.0807C89.8147 48.9798 89.898 48.8591 89.9553 48.7257C90.0126 48.5922 90.0428 48.4487 90.0441 48.3035C90.0453 48.1583 90.0176 48.0142 89.9627 47.8798C89.9077 47.7454 89.8264 47.6233 89.7237 47.5206C89.6211 47.4179 89.4989 47.3367 89.3645 47.2817C89.2301 47.2267 89.0861 47.199 88.9408 47.2003C88.7956 47.2015 88.6521 47.2317 88.5187 47.289C88.3852 47.3464 88.2645 47.4297 88.1636 47.5341ZM86.6171 81.564C86.412 81.3588 86.1338 81.2434 85.8436 81.2433C85.5535 81.2432 85.2752 81.3584 85.07 81.5634C84.8647 81.7685 84.7494 82.0467 84.7493 82.3369C84.7492 82.627 84.8643 82.9053 85.0694 83.1106L88.1636 86.2048C88.3699 86.404 88.6462 86.5143 88.933 86.5118C89.2197 86.5093 89.4941 86.3942 89.6969 86.1914C89.8997 85.9887 90.0147 85.7143 90.0172 85.4276C90.0197 85.1408 89.9094 84.8645 89.7102 84.6582L86.6171 81.564ZM96.6249 65.7757H92.2499C91.9598 65.7757 91.6816 65.8909 91.4765 66.0961C91.2714 66.3012 91.1561 66.5794 91.1561 66.8695C91.1561 67.1595 91.2714 67.4377 91.4765 67.6429C91.6816 67.848 91.9598 67.9632 92.2499 67.9632H96.6249C96.915 67.9632 97.1932 67.848 97.3983 67.6429C97.6034 67.4377 97.7186 67.1595 97.7186 66.8695C97.7186 66.5794 97.6034 66.3012 97.3983 66.0961C97.1932 65.8909 96.915 65.7757 96.6249 65.7757Z" fill="#F97E27"/>
</svg>
