<svg width="141" height="141" viewBox="0 0 141 141" fill="none" xmlns="http://www.w3.org/2000/svg">
<rect x="0.625" y="0.150833" width="140" height="140" rx="70" fill="#FFF5EE"/>
<g clip-path="url(#clip0_161_9270)">
<path d="M45.7187 86.0566C45.496 86.0566 45.2733 86.0248 45.0665 85.9611L37.4472 83.8456C36.811 83.6706 36.286 83.257 35.952 82.6685C35.6339 82.0958 35.5543 81.4118 35.7293 80.7756L41.6148 60.3514C41.9806 59.063 43.3486 58.2994 44.653 58.6653L52.2722 60.7809C52.9085 60.9558 53.4493 61.3694 53.7675 61.958C54.0856 62.5465 54.1651 63.2146 53.9902 63.8509L48.1047 84.275C47.7866 85.3408 46.7844 86.0566 45.7187 86.0566ZM45.4801 84.4341C45.9414 84.5613 46.4186 84.2909 46.5618 83.8296L52.4472 63.4055C52.5108 63.1828 52.479 62.9442 52.3677 62.7374C52.2563 62.5306 52.0655 62.3874 51.8428 62.3238L44.2235 60.1923C43.7622 60.0651 43.285 60.3355 43.1418 60.7968L37.2563 81.2209C37.1927 81.4436 37.2245 81.6822 37.3359 81.889C37.4472 82.0958 37.6381 82.239 37.8608 82.3026L45.4801 84.4341Z" fill="#F97E27"/>
<path d="M46.7362 68.4797C46.4976 68.4797 46.259 68.4479 46.0204 68.3843C45.3364 68.1934 44.7637 67.748 44.4138 67.1276C44.0638 66.5073 43.9684 65.7915 44.1593 65.1075C44.5569 63.6918 46.0363 62.8646 47.452 63.2464C48.8677 63.6282 49.6948 65.1234 49.313 66.5391C49.1222 67.2231 48.6768 67.7957 48.0564 68.1457C47.6269 68.3684 47.1815 68.4797 46.7362 68.4797ZM46.7202 64.7257C46.5294 64.7257 46.3544 64.7734 46.1953 64.8689C45.9408 65.012 45.7658 65.2347 45.6863 65.5211C45.5272 66.0937 45.8613 66.6822 46.4339 66.8413C46.7043 66.9208 47.0066 66.889 47.2611 66.7459C47.5156 66.6027 47.6906 66.38 47.7701 66.0937C47.9292 65.5211 47.5951 64.9325 47.0225 64.7734C46.9111 64.7416 46.8157 64.7257 46.7202 64.7257ZM95.5378 86.0566C94.4721 86.0566 93.47 85.3567 93.1677 84.275L87.2823 63.8509C87.1073 63.2146 87.1709 62.5465 87.505 61.958C87.839 61.3694 88.3639 60.9558 89.0002 60.7809L96.6195 58.6653C97.9238 58.2994 99.2759 59.063 99.6577 60.3514L105.543 80.7756C105.718 81.4118 105.654 82.0799 105.32 82.6685C105.002 83.2411 104.461 83.6706 103.825 83.8456L96.2059 85.9611C95.9832 86.0248 95.7605 86.0566 95.5378 86.0566ZM97.2717 60.1605C97.1921 60.1605 97.1126 60.1764 97.0331 60.1923L89.4138 62.3079C89.1911 62.3715 89.0002 62.5147 88.8888 62.7215C88.7775 62.9283 88.7457 63.1669 88.8093 63.3896L94.6948 83.8137C94.822 84.275 95.3151 84.5454 95.7764 84.4182L103.396 82.3026C103.618 82.239 103.809 82.0958 103.921 81.889C104.032 81.6822 104.064 81.4436 104 81.2209L98.1147 60.7968C98.0034 60.415 97.6375 60.1605 97.2717 60.1605Z" fill="#F97E27"/>
<path d="M94.4725 68.4811C93.3113 68.4811 92.2297 67.7017 91.8957 66.5246C91.7048 65.8406 91.8002 65.1248 92.1343 64.5044C92.4842 63.8841 93.0568 63.4387 93.7408 63.2478C95.1565 62.8501 96.6358 63.6932 97.0335 65.1089C97.4312 66.5246 96.5881 68.0039 95.1724 68.4016C94.9497 68.4493 94.7111 68.4811 94.4725 68.4811ZM94.4725 64.7271C94.3771 64.7271 94.2817 64.743 94.1862 64.7748C93.9158 64.8544 93.6772 65.0293 93.534 65.2839C93.3909 65.5384 93.3591 65.8247 93.4386 66.0951C93.5181 66.3655 93.6931 66.6041 93.9476 66.7473C94.2021 66.8904 94.4884 66.9222 94.7589 66.8427C95.3315 66.6836 95.6655 66.0951 95.5065 65.5225C95.3792 65.0453 94.9497 64.7271 94.4725 64.7271ZM86.1374 86.1534C85.708 86.1534 85.358 85.8194 85.3421 85.3899C85.3262 84.9445 85.6602 84.5787 86.1056 84.5627C86.1533 84.5627 90.0823 84.3878 93.1523 82.2563C93.5181 82.0018 94.0112 82.0972 94.2657 82.4631C94.5203 82.8289 94.4248 83.322 94.059 83.5765C90.5913 85.9784 86.3442 86.1534 86.1692 86.1534H86.1374ZM50.252 85.2308C50.0452 85.2308 49.8384 85.1513 49.6952 84.9922L47.341 82.638C47.0388 82.3199 47.0388 81.8268 47.341 81.5087C47.6433 81.1905 48.1523 81.1905 48.4704 81.5087L50.8246 83.8629C51.1268 84.181 51.1268 84.6741 50.8246 84.9922C50.6655 85.1513 50.4588 85.2308 50.252 85.2308ZM65.8723 99.4991C64.8384 99.4991 63.7886 99.1014 63.0091 98.3061L61.6571 96.954C61.3548 96.6359 61.3548 96.1428 61.6571 95.8247C61.9593 95.5065 62.4683 95.5065 62.7864 95.8247L64.1385 97.1767C65.0929 98.1311 66.6677 98.1311 67.6221 97.1767C68.0834 96.7154 68.3379 96.0951 68.3379 95.4429C68.3379 95.1248 68.2742 94.8066 68.1629 94.5203C68.0356 94.2181 67.8607 93.9477 67.6221 93.7091C67.3198 93.391 67.3198 92.8978 67.6221 92.5797C67.9243 92.2616 68.4333 92.2616 68.7514 92.5797L71.7737 95.602C72.7281 96.5564 74.3029 96.5564 75.2573 95.602C75.7186 95.1407 75.9731 94.5203 75.9731 93.8522C75.9731 93.1842 75.7186 92.5797 75.2573 92.1025C74.9391 91.7844 74.9391 91.2913 75.2573 90.9731C75.5754 90.655 76.0685 90.655 76.3866 90.9731C77.1502 91.7367 77.5796 92.7547 77.5796 93.8363C77.5796 94.918 77.1661 95.936 76.3866 96.6995C74.8119 98.2743 72.235 98.2743 70.6602 96.6995L69.9126 95.9519C69.8013 96.8268 69.4036 97.6539 68.7514 98.2902C67.9402 99.1014 66.9063 99.4991 65.8723 99.4991Z" fill="#F97E27"/>
<path d="M79.4263 94.6141C78.3924 94.6141 77.3585 94.2164 76.5631 93.4211L69.1506 86.0086C68.8484 85.6905 68.8484 85.1974 69.1506 84.8792C69.4528 84.5611 69.9619 84.5611 70.28 84.8792L77.6925 92.2917C78.6469 93.2461 80.2217 93.2461 81.1761 92.2917C82.1305 91.3373 82.1305 89.7626 81.1761 88.8082L73.7636 81.3957C73.4454 81.0775 73.4454 80.5844 73.7636 80.2663C74.0817 79.9482 74.5748 79.9482 74.8929 80.2663L82.3054 87.6788C83.8802 89.2536 83.8802 91.8304 82.3054 93.4052C81.5101 94.2323 80.4603 94.6141 79.4263 94.6141Z" fill="#F97E27"/>
<path d="M82.9265 88.9033C81.8448 88.9033 80.8268 88.4897 80.0633 87.7103C79.7451 87.3921 79.7451 86.899 80.0633 86.5809C80.3814 86.2628 80.8745 86.2628 81.1927 86.5809C81.6539 87.0422 82.2743 87.2967 82.9424 87.2967C83.6105 87.2967 84.2149 87.0422 84.6921 86.5809C85.058 86.215 85.2966 85.7379 85.3761 85.2288C85.392 85.1016 85.4079 84.9743 85.4079 84.8312C85.4079 84.179 85.1534 83.5586 84.6921 83.0814L72.9053 71.2946C72.0463 70.4356 70.7897 70.1175 69.6285 70.4356C69.024 70.6106 68.4991 70.9287 68.0696 71.39L64.3793 75.3985C64.3634 75.3985 64.3634 75.4144 64.3634 75.4144C62.6296 77.1482 59.83 77.1482 58.0962 75.4144C56.7123 74.0305 56.3941 71.9309 57.3167 70.197C58.4938 67.986 60.5299 64.9319 63.5521 63.039C63.5681 63.039 63.5681 63.0231 63.584 63.0231C66.0654 61.4643 68.7854 60.9553 71.6646 61.4643C72.094 61.5279 78.0909 62.4505 82.7992 65.6636L87.8894 63.4685C88.287 63.2935 88.7642 63.4844 88.9392 63.8821C89.1142 64.2797 88.9233 64.7569 88.5256 64.9319L83.0219 67.302C82.7674 67.4134 82.4652 67.3816 82.2425 67.2225C77.7409 63.9775 71.4896 63.039 71.426 63.039H71.3941C68.8968 62.5777 66.5426 63.039 64.4111 64.3911C64.3952 64.3911 64.3952 64.407 64.3793 64.407C61.6752 66.1249 59.8141 68.9086 58.7324 70.9446C58.1439 72.0581 58.3507 73.3943 59.2255 74.285C60.3231 75.3826 62.1205 75.3985 63.234 74.301L66.8926 70.3243C67.5129 69.6562 68.3082 69.1631 69.1831 68.9086C70.901 68.4314 72.7621 68.9086 74.0187 70.1652L85.8056 81.9521C86.5691 82.7156 86.9986 83.7336 86.9986 84.8153C86.9986 85.038 86.9827 85.2607 86.9509 85.4674C86.8236 86.3105 86.4259 87.074 85.8215 87.6944C85.0262 88.4738 84.0081 88.9033 82.9265 88.9033Z" fill="#F97E27"/>
<path d="M52.9255 65.5379C52.5596 65.5379 52.2415 65.2834 52.1461 64.9176C52.0506 64.4881 52.321 64.0586 52.7505 63.9632C57.9202 62.7861 63.742 62.9292 63.9965 62.9451C64.426 62.961 64.776 63.311 64.776 63.7405C64.776 64.1859 64.4101 64.5517 63.9647 64.5358C63.7261 64.5358 58.0952 64.3767 53.1164 65.522C53.0368 65.522 52.9891 65.5379 52.9255 65.5379ZM52.0983 88.3958C51.3189 88.3958 50.5872 88.0936 50.0305 87.5369C49.4737 86.9801 49.1715 86.2484 49.1715 85.469C49.1715 84.6896 49.4737 83.9579 50.0305 83.4011L52.5437 80.8879C53.6731 79.7585 55.5342 79.7585 56.6636 80.8879C57.2203 81.4446 57.5225 82.1763 57.5225 82.9557C57.5225 83.7352 57.2203 84.4669 56.6636 85.0236C56.3613 85.3417 55.8523 85.3417 55.5342 85.0236C55.232 84.7055 55.232 84.2124 55.5342 83.8942C55.7887 83.6397 55.9159 83.3057 55.9159 82.9557C55.9159 82.6058 55.7728 82.2718 55.5342 82.0172C55.0093 81.4923 54.1821 81.4923 53.6572 82.0172L51.1439 84.5305C50.8894 84.785 50.7622 85.119 50.7622 85.469C50.7622 85.8189 50.9053 86.153 51.1439 86.4075C51.3984 86.662 51.7325 86.7892 52.0824 86.7892C52.4324 86.7892 52.7664 86.6461 53.0209 86.4075C53.3232 86.0894 53.8322 86.0894 54.1503 86.4075C54.4525 86.7256 54.4525 87.2187 54.1503 87.5369C53.6095 88.0936 52.8778 88.3958 52.0983 88.3958Z" fill="#F97E27"/>
<path d="M54.2114 92.2932C53.4638 92.2932 52.7161 92.0069 52.1435 91.4343C51.5868 90.8775 51.2845 90.1458 51.2845 89.3664C51.2845 88.587 51.5868 87.8553 52.1435 87.2985L55.5475 83.8945C56.6769 82.7651 58.538 82.7651 59.6674 83.8945C60.2241 84.4512 60.5263 85.1829 60.5263 85.9624C60.5263 86.7418 60.2241 87.4735 59.6674 88.0302C59.3651 88.3484 58.8561 88.3484 58.538 88.0302C58.2358 87.7121 58.2358 87.219 58.538 86.9009C58.7925 86.6464 58.9197 86.3123 58.9197 85.9624C58.9197 85.6124 58.7766 85.2784 58.538 85.0239C58.0131 84.499 57.17 84.499 56.661 85.0239L53.2729 88.4438C53.0184 88.6983 52.8911 89.0324 52.8911 89.3823C52.8911 89.7323 53.0343 90.0663 53.2729 90.3208C53.7978 90.8457 54.6249 90.8457 55.1499 90.3208C55.4521 90.0027 55.9611 90.0027 56.2792 90.3208C56.5974 90.6389 56.5815 91.132 56.2792 91.4502C55.7066 92.0069 54.959 92.2932 54.2114 92.2932Z" fill="#F97E27"/>
<path d="M56.2166 96.2852C55.4372 96.2852 54.7055 95.983 54.1488 95.4263C53.592 94.8695 53.2898 94.1378 53.2898 93.3584C53.2898 92.579 53.592 91.8473 54.1488 91.2905L58.539 86.9003C59.6684 85.7709 61.5295 85.7709 62.6588 86.9003C63.2156 87.457 63.5178 88.1887 63.5178 88.9682C63.5178 89.7476 63.2156 90.4793 62.6588 91.036L58.2686 95.4263C57.7278 95.983 56.996 96.2852 56.2166 96.2852ZM60.6228 87.6479C60.2887 87.6479 59.9388 87.7752 59.6843 88.0297L55.2781 92.4199C55.0236 92.6744 54.8964 93.0085 54.8964 93.3584C54.8964 93.7084 55.0395 94.0424 55.2781 94.2969C55.5326 94.5514 55.8667 94.6787 56.2166 94.6787C56.5666 94.6787 56.9006 94.5355 57.1551 94.2969L61.5454 89.9067C61.7999 89.6522 61.9271 89.3181 61.9271 88.9682C61.9271 88.6182 61.784 88.2842 61.5454 88.0297C61.2909 87.7752 60.9568 87.6479 60.6228 87.6479Z" fill="#F97E27"/>
<path d="M60.4946 98.0029C59.7152 98.0029 58.9834 97.7006 58.4267 97.1439C57.87 96.5872 57.5677 95.8555 57.5677 95.076C57.5677 94.2966 57.87 93.5649 58.4267 93.0082C58.7289 92.69 59.2379 92.69 59.5561 93.0082C59.8583 93.3263 59.8583 93.8194 59.5561 94.1375C59.3016 94.392 59.1743 94.7261 59.1743 95.076C59.1743 95.426 59.3175 95.76 59.5561 96.0145C59.8106 96.269 60.1446 96.3963 60.4946 96.3963C60.8445 96.3963 61.1786 96.2531 61.4331 96.0145L64.5508 92.8968C65.0757 92.3719 65.0757 91.5448 64.5508 91.0198C64.0259 90.4949 63.1987 90.4949 62.6738 91.0198C62.3716 91.338 61.8626 91.338 61.5444 91.0198C61.2422 90.7017 61.2422 90.2086 61.5444 89.8905C62.6738 88.7611 64.5349 88.7611 65.6642 89.8905C66.7936 91.0198 66.7936 92.8809 65.6642 94.0103L62.5465 97.128C62.0057 97.7006 61.274 98.0029 60.4946 98.0029ZM78.6759 65.1556C78.5168 65.1556 78.3419 65.1079 78.1987 64.9965C77.8488 64.7261 77.7851 64.233 78.0396 63.8831C80.3302 60.8767 81.5232 57.25 81.5232 53.4483V46.6879L70.6271 42.4568L59.7311 46.6879V53.4483C59.7311 56.9955 60.7809 60.3995 62.7851 63.2786C63.0396 63.6445 62.9442 64.1376 62.5784 64.3921C62.2125 64.6466 61.7194 64.5511 61.4649 64.1853C59.2857 61.0358 58.1245 57.3136 58.1245 53.4483V46.1471C58.1245 45.8131 58.3313 45.5267 58.6335 45.3995L70.3249 40.8502C70.5158 40.7866 70.7226 40.7866 70.8975 40.8502L82.5889 45.3995C82.8912 45.5267 83.098 45.8131 83.098 46.1471V53.4483C83.098 57.6158 81.7777 61.5448 79.2804 64.8534C79.1531 65.0601 78.9145 65.1556 78.6759 65.1556Z" fill="#F97E27"/>
<path d="M74.5886 63.7393C74.3977 63.7393 74.2068 63.6757 74.0478 63.5325C73.7296 63.2303 73.6978 62.7372 74.0001 62.4031C76.2429 59.9535 77.4836 56.7722 77.4836 53.4477V49.471L70.6278 46.7987L63.7721 49.471V53.4477C63.7721 56.6131 64.9014 59.6831 66.9693 62.085C67.2556 62.4191 67.2238 62.9281 66.8898 63.2144C66.5557 63.5007 66.0467 63.4689 65.7604 63.1348C63.4515 60.4415 62.182 57.0111 62.1814 53.4636V48.9143C62.1814 48.5802 62.3882 48.2939 62.6904 48.1667L70.3415 45.1921C70.5324 45.1285 70.7392 45.1285 70.9142 45.1921L78.5653 48.1667C78.8675 48.2939 79.0743 48.5802 79.0743 48.9143V53.4477C79.0743 57.1698 77.6904 60.7329 75.1772 63.4848C75.0022 63.6598 74.7954 63.7393 74.5886 63.7393Z" fill="#F97E27"/>
<path d="M69.0704 58.6506C68.8636 58.6506 68.6568 58.5711 68.5136 58.412L66.3026 56.201C66.0004 55.8987 66.0004 55.3897 66.3026 55.0716C66.6048 54.7694 67.1138 54.7694 67.432 55.0716L69.0863 56.7259L73.8583 51.9539C74.1764 51.6517 74.6695 51.6517 74.9876 51.9539C75.3058 52.2561 75.3058 52.7651 74.9876 53.0833L69.6589 58.412C69.4839 58.5711 69.2771 58.6506 69.0704 58.6506Z" fill="#F97E27"/>
</g>
<defs>
<clipPath id="clip0_161_9270">
<rect width="70" height="70" fill="white" transform="translate(35.625 35.1508)"/>
</clipPath>
</defs>
</svg>
